<svg width="138" height="181" viewBox="0 0 138 181" fill="none" xmlns="http://www.w3.org/2000/svg">
<g filter="url(#filter0_d_29_288)">
<path d="M85.0601 0.916288L63.8032 34.9626L25.2772 56.3065C21.5454 58.2973 18.3679 61.1831 16.0305 64.7043C13.6931 68.2255 12.2692 72.2715 11.8868 76.4785L4.80953 159.21L15.6261 165.942L26.4427 172.673L97.746 129.874C101.341 127.685 104.337 124.641 106.466 121.014C108.595 117.387 109.792 113.29 109.948 109.088L112.172 65.1058L133.441 31.0247L85.0601 0.916288ZM89.0775 18.2023L116.127 35.0355L103.968 54.5099L76.9186 37.6767L89.0775 18.2023ZM68.0842 46.9699L99.4992 66.515L97.3845 108.553C97.3108 110.687 96.7098 112.769 95.6349 114.615C94.56 116.461 93.0446 118.013 91.2237 119.133L28.8989 156.535L56.1459 112.895C57.2386 112.935 58.332 112.834 59.3984 112.592C62.6459 111.84 65.4611 109.83 67.2246 107.006C68.9881 104.181 69.5555 100.773 68.802 97.5305C68.0485 94.2883 66.0357 91.4777 63.2066 89.7171C60.3774 87.9564 56.9636 87.3899 53.7161 88.1422C51.8404 88.579 50.0904 89.4402 48.6011 90.6594C47.1117 91.8786 45.9229 93.4232 45.1264 95.1739C44.3299 96.9246 43.9471 98.8346 44.0073 100.757C44.0676 102.678 44.5694 104.561 45.474 106.258L18.2256 149.893L24.4133 77.6026C24.616 75.4537 25.3513 73.389 26.5529 71.5947C27.7545 69.8005 29.3846 68.3331 31.2963 67.325L68.0889 46.9623L68.0842 46.9699Z" fill="black"/>
</g>
<defs>
<filter id="filter0_d_29_288" x="0.80957" y="0.91629" width="136.631" height="179.757" filterUnits="userSpaceOnUse" color-interpolation-filters="sRGB">
<feFlood flood-opacity="0" result="BackgroundImageFix"/>
<feColorMatrix in="SourceAlpha" type="matrix" values="0 0 0 0 0 0 0 0 0 0 0 0 0 0 0 0 0 0 127 0" result="hardAlpha"/>
<feOffset dy="4"/>
<feGaussianBlur stdDeviation="2"/>
<feComposite in2="hardAlpha" operator="out"/>
<feColorMatrix type="matrix" values="0 0 0 0 0 0 0 0 0 0 0 0 0 0 0 0 0 0 0.25 0"/>
<feBlend mode="normal" in2="BackgroundImageFix" result="effect1_dropShadow_29_288"/>
<feBlend mode="normal" in="SourceGraphic" in2="effect1_dropShadow_29_288" result="shape"/>
</filter>
</defs>
</svg>
