<svg width="201" height="181" viewBox="0 0 201 181" fill="none" xmlns="http://www.w3.org/2000/svg">
<g filter="url(#filter0_d_4_25)">
<path fill-rule="evenodd" clip-rule="evenodd" d="M5.20015 72.8613C4.35142 71.0564 4.25673 68.9894 4.93691 67.1149C5.61709 65.2404 7.01643 63.7121 8.82707 62.866L47.541 44.7771C58.7101 39.5583 71.1495 40.2758 81.2538 45.637C82.4411 39.9174 84.9515 34.5532 88.5853 29.9713C92.2191 25.3894 96.8759 21.7165 102.185 19.2449L140.826 1.18995C142.637 0.343929 144.71 0.249552 146.591 0.927561C148.471 1.60557 150.004 3.00044 150.853 4.80531L195.655 100.079C196.504 101.884 196.598 103.951 195.918 105.826C195.238 107.7 193.839 109.228 192.028 110.074L151.002 129.244C148.312 130.5 145.897 132.273 143.895 134.46C141.892 136.647 140.342 139.206 139.331 141.99L136.319 150.27C135.638 152.143 134.24 153.67 132.431 154.515C130.621 155.36 128.55 155.455 126.67 154.779L118.359 151.79C115.565 150.783 112.6 150.334 109.633 150.469C106.666 150.604 103.754 151.32 101.064 152.577L60.0292 171.751C58.2185 172.597 56.1449 172.691 54.2644 172.013C52.384 171.335 50.8507 169.94 50.002 168.135L5.20015 72.8613ZM97.6952 62.8453C95.149 57.4307 94.865 51.2296 96.9055 45.6062C98.946 39.9828 103.144 35.3978 108.576 32.8597L140.39 17.9947L178.792 99.6581L144.593 115.637C138.13 118.657 132.706 123.416 128.901 129.3L97.6952 62.8453ZM115.255 135.698L93.6458 89.6501L84.0143 69.2155C81.4648 63.8063 76.8651 59.6274 71.2261 57.597C65.5871 55.5667 59.3701 55.851 53.9413 58.3876L22.0544 73.2867L60.456 154.95L94.655 138.971C101.076 135.97 108.216 134.836 115.255 135.698Z" fill="black"/>
</g>
<defs>
<filter id="filter0_d_4_25" x="0.487305" y="0.47942" width="199.881" height="179.982" filterUnits="userSpaceOnUse" color-interpolation-filters="sRGB">
<feFlood flood-opacity="0" result="BackgroundImageFix"/>
<feColorMatrix in="SourceAlpha" type="matrix" values="0 0 0 0 0 0 0 0 0 0 0 0 0 0 0 0 0 0 127 0" result="hardAlpha"/>
<feOffset dy="4"/>
<feGaussianBlur stdDeviation="2"/>
<feComposite in2="hardAlpha" operator="out"/>
<feColorMatrix type="matrix" values="0 0 0 0 0 0 0 0 0 0 0 0 0 0 0 0 0 0 0.25 0"/>
<feBlend mode="normal" in2="BackgroundImageFix" result="effect1_dropShadow_4_25"/>
<feBlend mode="normal" in="SourceGraphic" in2="effect1_dropShadow_4_25" result="shape"/>
</filter>
</defs>
</svg>
