<svg width="40" height="32" viewBox="0 0 40 32" fill="none" xmlns="http://www.w3.org/2000/svg">
<path d="M35 0H5C3.67435 0.00141806 2.40341 0.528658 1.46603 1.46603C0.528658 2.40341 0.00141806 3.67435 0 5V26.4286C0.00141806 27.7542 0.528658 29.0252 1.46603 29.9625C2.40341 30.8999 3.67435 31.4272 5 31.4286H35C36.3256 31.4272 37.5966 30.8999 38.534 29.9625C39.4713 29.0252 39.9986 27.7542 40 26.4286V5C39.9986 3.67435 39.4713 2.40341 38.534 1.46603C37.5966 0.528658 36.3256 0.00141806 35 0ZM33.7339 8.27054L20.8768 18.2705C20.6261 18.4654 20.3176 18.5712 20 18.5712C19.6824 18.5712 19.3739 18.4654 19.1232 18.2705L6.26607 8.27054C6.11501 8.15646 5.98813 8.0135 5.8928 7.84996C5.79747 7.68642 5.73559 7.50557 5.71076 7.31791C5.68593 7.13025 5.69864 6.93953 5.74816 6.75683C5.79767 6.57412 5.88301 6.40308 5.9992 6.25364C6.11539 6.1042 6.26012 5.97935 6.42498 5.88633C6.58984 5.79331 6.77155 5.73398 6.95954 5.71179C7.14753 5.6896 7.33805 5.705 7.52004 5.75708C7.70203 5.80916 7.87185 5.8969 8.01964 6.01518L20 15.333L31.9804 6.01518C32.2799 5.78895 32.6565 5.68973 33.0287 5.73897C33.4008 5.78821 33.7386 5.98196 33.9691 6.27832C34.1995 6.57468 34.304 6.94983 34.26 7.32264C34.216 7.69545 34.027 8.03596 33.7339 8.27054Z" fill="white"/>
</svg>
