<svg width="66" height="35" viewBox="0 0 66 35" fill="none" xmlns="http://www.w3.org/2000/svg">
<path d="M32.5187 28.3079L4.15599 0.708886C3.92742 0.481659 3.65606 0.302018 3.35761 0.180357C3.05915 0.0586956 2.73954 -0.00257179 2.41725 0.000105632C2.09496 0.00278305 1.77641 0.0693504 1.48002 0.195953C1.18363 0.322556 0.915285 0.50668 0.690524 0.737674C0.465762 0.968667 0.289041 1.24194 0.170589 1.54168C0.0521371 1.84142 -0.00569478 2.16168 0.000440295 2.48392C0.00657537 2.80616 0.0765557 3.12399 0.206331 3.419C0.336107 3.71402 0.523101 3.98036 0.756492 4.20263L30.819 33.4526C31.274 33.8954 31.8839 34.1431 32.5187 34.1431C33.1536 34.1431 33.7634 33.8954 34.2185 33.4526L64.281 4.20263C64.5144 3.98036 64.7014 3.71401 64.8312 3.419C64.9609 3.12398 65.0309 2.80616 65.037 2.48392C65.0432 2.16168 64.9853 1.84142 64.8669 1.54168C64.7484 1.24194 64.5717 0.968664 64.347 0.737671C64.1222 0.506678 63.8539 0.322553 63.5575 0.19595C63.2611 0.0693477 62.9425 0.0027804 62.6202 0.000103C62.2979 -0.00257439 61.9783 0.058693 61.6799 0.180354C61.3814 0.302015 61.1101 0.481656 60.8815 0.708883L32.5187 28.3079Z" fill="white"/>
</svg>
